<svg aria-hidden="true" style="position: absolute; width: 0; height: 0; overflow: hidden;" version="1.1" xmlns="http://www.w3.org/2000/svg" xmlns:xlink="http://www.w3.org/1999/xlink">
<defs>
<symbol id="icon-orange-rigth-group" viewBox="0 0 33 32">
<path fill="#ff6b08" style="fill: var(--color1, #ff6b08)" d="M22.215 0c-6.812 0-12.335 5.522-12.335 12.335 0 0.246 0.007 0.491 0.021 0.734 0.030 0.514-0.399 0.955-0.914 0.955-4.964 0-8.988 4.024-8.988 8.988s4.024 8.988 8.988 8.988c3.801 0 7.051-2.359 8.365-5.693 0.46-1.166 1.736-1.971 2.974-1.781 0.616 0.095 1.246 0.144 1.888 0.144 6.812 0 12.335-5.522 12.335-12.335s-5.522-12.335-12.335-12.335z"></path>
</symbol>
<symbol id="icon-white-rigth-group" viewBox="0 0 30 32">
<path fill="#fff" style="fill: var(--color2, #fff)" d="M21.805 0.010c-6.686 0-12.107 5.42-12.107 12.107v0.448c0 0.184 0.004 0.367 0.012 0.549 0.022 0.496-0.392 0.916-0.888 0.916-4.872 0-8.822 3.95-8.822 8.822v0.326c0 4.872 3.95 8.822 8.822 8.822 3.852 0 7.128-2.469 8.33-5.911 0.368-1.053 1.5-1.779 2.599-1.591 0.667 0.114 1.353 0.173 2.053 0.173 6.687 0 12.107-5.421 12.107-12.107v-0.448c0-6.686-5.421-12.107-12.107-12.107z"></path>
</symbol>
<symbol id="icon-left-group" viewBox="0 0 20 32">
<path fill="#fff" style="fill: var(--color2, #fff)" d="M20.121 25.212c0 4.987-4.043 9.030-9.030 9.030s-9.030-4.043-9.030-9.030c0-4.987 4.043-9.030 9.030-9.030s9.030 4.043 9.030 9.030z"></path>
<path fill="#fff" style="fill: var(--color2, #fff)" d="M7.152 11.273c0 1.975-1.601 3.576-3.576 3.576s-3.576-1.601-3.576-3.576c0-1.975 1.601-3.576 3.576-3.576s3.576 1.601 3.576 3.576z"></path>
<path fill="#fff" style="fill: var(--color2, #fff)" d="M10.121 1.455c0 0.803-0.651 1.455-1.455 1.455s-1.455-0.651-1.455-1.455c0-0.803 0.651-1.455 1.455-1.455s1.455 0.651 1.455 1.455z"></path>
<path fill="#ff6b08" style="fill: var(--color1, #ff6b08)" d="M19.636 24.364c0 4.217-3.419 7.636-7.636 7.636s-7.636-3.419-7.636-7.636c0-4.217 3.419-7.636 7.636-7.636s7.636 3.419 7.636 7.636z"></path>
</symbol>
<symbol id="icon-orange-rigth-big-circle" viewBox="0 0 32 32">
<path fill="#ff6b08" style="fill: var(--color1, #ff6b08)" d="M32 16c0 8.837-7.163 16-16 16s-16-7.163-16-16c0-8.837 7.163-16 16-16s16 7.163 16 16z"></path>
</symbol>
<symbol id="logo" viewBox="0 0 107 32">
<path fill="#181c27" style="fill: var(--color1, #181c27)" d="M36.213 12.011c-2.172 0-3.811 1.712-3.811 3.985s1.656 3.985 3.85 3.985c2.172 0 3.81-1.712 3.81-3.985s-1.655-3.985-3.849-3.985zM47.223 0.162h-47.223v31.838h47.223l11.152-15.885-11.152-15.953zM24.692 21.036l-0.109 0.092c-1.763 1.486-3.804 2.239-6.066 2.239-2.139 0-4.068-0.743-5.433-2.092-1.352-1.338-2.097-3.213-2.097-5.28 0-1.986 0.757-3.834 2.134-5.204 1.397-1.398 3.304-2.167 5.38-2.167 2.34 0 3.959 0.564 5.596 1.947l0.233 0.197-2.301 2.754-0.239-0.198c-1.004-0.832-1.881-1.314-3.392-1.314-2.004 0-3.634 1.788-3.634 3.985 0 2.332 1.619 4.024 3.849 4.024 0.982 0 1.854-0.232 2.535-0.674v-1.481h-3.040v-3.213h6.584v6.384zM41.678 21.203c-1.417 1.396-3.358 2.165-5.466 2.165s-4.045-0.763-5.447-2.151c-1.381-1.366-2.142-3.218-2.142-5.221-0.006-0.967 0.182-1.926 0.553-2.82s0.918-1.706 1.609-2.387c1.417-1.396 3.358-2.162 5.466-2.162s4.044 0.764 5.446 2.151c1.381 1.366 2.142 3.218 2.142 5.221 0.006 0.967-0.182 1.925-0.553 2.818s-0.918 1.704-1.608 2.385z"></path>
<path fill="#fff" style="fill: var(--color2, #fff); stroke: var(--color2, #fff)" stroke="#fff" stroke-linejoin="miter" stroke-linecap="butt" stroke-miterlimit="10" stroke-width="0.7619" d="M11.278 16.022c0-3.815 2.988-6.94 7.074-6.94 2.429 0 3.893 0.652 5.3 1.84l-1.87 2.243c-1.041-0.863-1.966-1.361-3.527-1.361-2.159 0-3.874 1.898-3.874 4.218 0 2.454 1.696 4.256 4.086 4.256 1.079 0 2.043-0.268 2.795-0.805v-1.917h-2.988v-2.552h5.859v5.828c-1.388 1.169-3.296 2.128-5.763 2.128-4.202 0-7.093-2.933-7.093-6.937z"></path>
<path fill="#fff" style="fill: var(--color2, #fff); stroke: var(--color2, #fff)" stroke="#fff" stroke-linejoin="miter" stroke-linecap="butt" stroke-miterlimit="10" stroke-width="0.7619" d="M29.176 16.115c0-3.815 3.029-6.94 7.189-6.94s7.151 3.087 7.151 6.94c0 3.815-3.029 6.94-7.189 6.94s-7.151-3.087-7.151-6.94zM40.413 16.115c0-2.301-1.696-4.218-4.086-4.218s-4.048 1.879-4.048 4.218c0 2.3 1.696 4.218 4.086 4.218s4.048-1.879 4.048-4.218z"></path>
<path fill="#ff6c00" style="fill: var(--color3, #ff6c00)" d="M106.667 0h-47.164v31.838h47.164v-31.838z"></path>
<path fill="#fff" style="fill: var(--color2, #fff); stroke: var(--color2, #fff)" stroke="#fff" stroke-linejoin="miter" stroke-linecap="butt" stroke-miterlimit="10" stroke-width="0.7619" d="M74.033 9.542h2.968v13.42h-2.968v-13.42z"></path>
<path fill="#fff" style="fill: var(--color2, #fff); stroke: var(--color2, #fff)" stroke="#fff" stroke-linejoin="miter" stroke-linecap="butt" stroke-miterlimit="10" stroke-width="0.7619" d="M85.783 12.265h-4.106v-2.722h11.179v2.722h-4.105v10.697h-2.968v-10.697z"></path>
</symbol>
<symbol id="wave" viewBox="0 0 105 32">
<path fill="#fff" style="fill: var(--color1, #fff)" opacity="0.3" d="M11.041 21.713c-6.835-0.527-9.201-12.397-11.041-12.397v22.683h104.626v-16.353c-2.103-11.183-5.959-13.1-7.624-12.66-8.202 0.633-6.572 18.727-13.933 18.727-5.678 0-8.938-14.243-13.407-14.243-5.258 0-10.515 19.518-17.35 19.518-11.304-0-15.51-28.75-24.711-26.903-5.52 0-8.675 21.628-16.561 21.628z"></path>
<path fill="#fff" style="fill: var(--color1, #fff)" opacity="0.2" d="M93.585 21.713c6.835-0.527 9.201-12.397 11.041-12.397v22.683h-104.626v-16.353c2.103-11.183 5.959-13.1 7.623-12.66 8.202 0.633 6.572 18.727 13.933 18.727 5.678 0 8.938-14.243 13.407-14.243 5.258 0 10.515 19.518 17.35 19.518 11.304-0 15.51-28.75 24.711-26.903 5.52 0 8.675 21.628 16.561 21.628z"></path>
</symbol>
</defs>
</svg>
